#!OML:ASF \\sashay\E\basketball\basketball\Project 1\Capture day 1\Session 1\Subject.ASF
:FULLY-SPECIFIED
:DEGREES
341
root -30.5475 12.6773 1.5728 -166.935 81.4262 194.11
lowerback 23.6514 -5.158 3.47116
upperback 8.33974 -4.8294 3.76899
thorax -3.90536 -2.03398 3.35532
lowerneck -10.3931 2.59508 -6.98741
upperneck -5.42629 4.43581 1.05436
head -0.141068 2.45116 1.63614
rclavicle 3.33958e-014 -1.66979e-014
rhumerus -6.54553 55.3095 -81.682
rradius 97.7616
rwrist -27.5045
rhand -23.2735 27.5961
rfingers 7.12502
rthumb 3.17894 -2.3599
lclavicle 3.33958e-014 -1.66979e-014
lhumerus -36.9087 -16.3559 111.077
lradius 115.081
lwrist 16.3223
lhand -40.0269 36.3588
lfingers 7.12502
lthumb -12.9937 65.9342
rfemur -24.3258 -12.9658 -9.80803
rtibia 61.5309
rfoot -22.5264 -14.4522
rtoes -56.7359
lfemur -25.746 22.7629 3.55559
ltibia 98.5972
lfoot -9.48806 -13.1672
ltoes -16.5708
342
root -30.4999 12.6708 1.5103 -166.636 81.4735 194.032
lowerback 23.6797 -5.18117 3.9232
upperback 8.50358 -4.73306 3.83934
thorax -3.77205 -1.97097 3.14693
lowerneck -10.9781 2.71005 -7.27547
upperneck -5.10941 4.67394 1.06238
head 0.0398911 2.57122 1.71494
rclavicle 6.83819e-014 -3.18055e-014
rhumerus -7.73275 56.2897 -83.2173
rradius 96.3725
rwrist -25.2581
rhand -23.3261 27.4865
rfingers 7.12502
rthumb 3.12821 -2.47028
lclavicle 6.83819e-014 -3.18055e-014
lhumerus -36.6066 -15.0062 110.531
lradius 113.758
lwrist 18.0803
lhand -39.7517 36.7109
lfingers 7.12502
lthumb -12.7284 66.303
rfemur -24.224 -12.8165 -10.0171
rtibia 61.0258
rfoot -22.9266 -13.9652
rtoes -56.6596
lfemur -26.0281 23.2351 3.67074
ltibia 98.829
lfoot -9.16227 -14.2192
ltoes -18.9654
343
root -30.4509 12.6733 1.44466 -166.319 81.4015 193.991
lowerback 23.861 -5.19675 4.22257
upperback 8.5554 -4.63737 4.05037
thorax -3.81051 -1.91313 3.19426
lowerneck -11.5542 2.61837 -7.6151
upperneck -4.70894 4.64433 1.4213
head 0.251416 2.55732 1.91441
rclavicle -1.59028e-015 -2.3059e-014
rhumerus -9.03256 57.587 -84.873
rradius 94.8967
rwrist -22.7871
rhand -23.4928 27.2952
rfingers 7.12502
rthumb 2.96719 -2.6639
lclavicle -1.59028e-015 -2.3059e-014
lhumerus -36.4781 -13.4093 110.012
lradius 112.724
lwrist 20.1608
lhand -39.1086 36.7116
lfingers 7.12502
lthumb -12.1084 66.3412
rfemur -24.037 -12.6621 -10.1714
rtibia 60.4115
rfoot -22.6542 -14.1724
rtoes -56.8271
lfemur -26.2347 23.7815 3.87622
ltibia 98.9634
lfoot -8.62272 -15.3351
ltoes -20.7345
344
root -30.3871 12.7006 1.36342 -168.356 81.239 191.609
lowerback 23.9175 -5.16995 4.3051
upperback 8.63225 -4.55886 4.14479
thorax -3.7537 -1.86708 3.22998
lowerneck -11.5498 2.53234 -7.90474
upperneck -4.76391 4.56827 1.25364
head 0.233896 2.52508 1.90748
rclavicle 5.40694e-014 -1.26427e-013
rhumerus -10.5651 58.662 -86.7638
rradius 93.7566
rwrist -20.3805
rhand -23.7014 27.2031
rfingers 7.12502
rthumb 2.76571 -2.75873
lclavicle 5.40694e-014 -1.26427e-013
lhumerus -36.6281 -12.1224 109.405
lradius 111.895
lwrist 21.8115
lhand -38.5072 36.4491
lfingers 7.12502
lthumb -11.5284 66.1121
rfemur -23.67 -12.7141 -10.7237
rtibia 59.655
rfoot -22.7169 -13.7624
rtoes -56.8435
lfemur -26.2154 24.0858 3.49
ltibia 98.8157
lfoot -7.99696 -16.2009
ltoes -21.7421
345
root -30.3154 12.6935 1.28131 -172.934 81.0676 186.654
lowerback 23.6865 -4.98952 4.15127
upperback 8.75151 -4.38637 4.04183
thorax -3.51195 -1.78058 3.1351
lowerneck -11.5264 2.32186 -8.16231
upperneck -4.97117 4.32534 1.19619
head 0.171349 2.41684 1.92319
rclavicle 3.57812e-014 4.53229e-014
rhumerus -12.31 59.2477 -88.8858
rradius 92.9088
rwrist -17.9482
rhand -23.8792 27.2842
rfingers 7.12502
rthumb 2.59406 -2.67973
lclavicle 3.57812e-014 4.53229e-014
lhumerus -37.1104 -11.389 108.752
lradius 111.161
lwrist 22.8383
lhand -37.5278 36.106
lfingers 7.12502
lthumb -10.5838 65.8195
rfemur -22.7647 -12.9509 -12.0034
rtibia 58.7846
rfoot -22.7758 -13.8506
rtoes -56.9316
lfemur -26.2601 24.1878 2.71508
ltibia 98.8206
lfoot -7.35098 -17.2786
ltoes -21.3765
346
root -30.2402 12.7162 1.19618 -167.183 80.9345 191.899
lowerback 23.4002 -4.79161 5.27873
upperback 8.74865 -3.8752 4.35505
thorax -3.43281 -1.51006 2.68893
lowerneck -11.5473 1.95877 -8.32439
upperneck -4.97232 3.86698 1.18263
head 0.19509 2.19133 1.93488
rclavicle 1.15295e-014 -8.11041e-014
rhumerus -14.2573 59.8001 -91.1523
rradius 92.1711
rwrist -15.4203
rhand -24.0089 27.1383
rfingers 7.12502
rthumb 2.46873 -2.82717
lclavicle 1.15295e-014 -8.11041e-014
lhumerus -37.71 -10.8072 108.209
lradius 110.769
lwrist 23.3507
lhand -40.3239 38.8929
lfingers 7.12502
lthumb -13.28 68.4499
rfemur -22.6147 -12.7824 -11.1223
rtibia 57.8162
rfoot -22.3517 -13.7381
rtoes -56.8605
lfemur -26.4256 25.1369 4.16099
ltibia 98.8674
lfoot -6.17214 -19.3086
ltoes -18.5238
347
root -30.1857 12.7334 1.12038 -154.329 80.2239 204.004
lowerback 23.0623 -4.70636 7.44547
upperback 8.59447 -3.24747 5.07227
thorax -3.4994 -1.16877 2.07839
lowerneck -11.1943 1.53293 -9.02725
upperneck -5.54799 3.363 1.7487
head -0.0420021 1.97868 2.21995
rclavicle 5.00937e-014 -7.71285e-014
rhumerus -16.2151 60.7951 -93.4094
rradius 91.5746
rwrist -13.3216
rhand -24.0832 26.9864
rfingers 7.12502
rthumb 2.39702 -2.97985
lclavicle 5.00937e-014 -7.71285e-014
lhumerus -38.1841 -10.106 107.706
lradius 110.464
lwrist 23.6485
lhand -36.2607 37.0965
lfingers 7.12502
lthumb -9.36135 66.8687
rfemur -22.7291 -12.312 -8.5974
rtibia 56.8168
rfoot -22.2542 -13.6123
rtoes -56.5683
lfemur -27.2183 26.6864 7.35051
ltibia 99.2142
lfoot -4.77893 -21.9657
ltoes -16.0458
348
root -30.1223 12.7477 1.03076 -154.922 79.5522 202.724
lowerback 22.675 -4.57871 7.80001
upperback 8.48247 -3.03412 5.27529
thorax -3.42995 -1.06239 2.02704
lowerneck -11.0047 1.09566 -9.55897
upperneck -5.8199 2.83079 1.97263
head -0.140558 1.7351 2.37141
rclavicle -2.22639e-014 3.18055e-015
rhumerus -18.6488 62.9256 -96.1628
rradius 90.5092
rwrist -6.11803
rhand -24.3494 26.3516
rfingers 7.12502
rthumb 2.13991 -3.61738
lclavicle -2.22639e-014 3.18055e-015
lhumerus -38.5598 -9.35653 107.101
lradius 110.315
lwrist 23.7512
lhand -36.2367 36.4962
lfingers 7.12502
lthumb -9.3382 66.2694
rfemur -22.0398 -12.888 -8.81752
rtibia 55.7909
rfoot -22.4104 -13.2467
rtoes -56.483
lfemur -27.8913 27.0534 7.50061
ltibia 99.2708
lfoot -4.9606 -23.3275
ltoes -17.4193
349
root -30.0597 12.7538 0.947623 -164.054 78.9944 193.408
lowerback 23.0128 -4.37411 6.6096
upperback 8.36943 -3.01068 5.02026
thorax -3.68592 -1.07711 2.42899
lowerneck -10.8248 0.609536 -10.0324
upperneck -5.88926 2.22149 2.35799
head -0.163694 1.4435 2.56985
rclavicle -1.27222e-014 -5.56597e-015
rhumerus -19.7982 63.0304 -97.9739
rradius 89.7618
rwrist -5.66654
rhand -24.6268 26.3368
rfingers 7.12502
rthumb 1.87198 -3.63473
lclavicle -1.27222e-014 -5.56597e-015
lhumerus -39.1367 -8.56213 106.318
lradius 110.449
lwrist 23.726
lhand -35.4917 35.827
lfingers 7.12502
lthumb -8.61931 65.6311
rfemur -20.428 -13.8675 -11.078
rtibia 54.7519
rfoot -22.3496 -12.9469
rtoes -56.4848
lfemur -28.1133 26.6332 5.76126
ltibia 99.0512
lfoot -5.71605 -23.5684
ltoes -19.0685
350
root -29.9921 12.7706 0.872564 -167.81 78.4299 189.552
lowerback 23.4605 -4.02207 5.91407
upperback 8.27684 -2.66404 4.94578
thorax -3.98551 -0.920993 2.6723
lowerneck -10.8445 0.0431816 -10.7176
upperneck -5.71036 1.55048 3.14335
head -0.0650379 1.11884 2.9517
rclavicle 2.46493e-014 -4.29375e-014
rhumerus -20.862 63.1297 -99.6673
rradius 89.0267
rwrist -5.33202
rhand -24.6084 26.2393
rfingers 7.12502
rthumb 1.88973 -3.73212
lclavicle 2.46493e-014 -4.29375e-014
lhumerus -39.6879 -7.79847 105.427
lradius 110.79
lwrist 23.5244
lhand -35.0742 35.4965
lfingers 7.12502
lthumb -8.21639 65.3167
rfemur -19.0291 -14.19 -12.1437
rtibia 53.5757
rfoot -22.285 -12.5398
rtoes -56.2171
lfemur -28.076 26.9192 5.44525
ltibia 98.7774
lfoot -5.93122 -23.6438
ltoes -18.2155
351
root -29.9019 12.7991 0.801689 -168.676 78.3693 188.709
lowerback 23.7822 -3.34 5.20249
upperback 8.35908 -1.90776 5.0028
thorax -4.03619 -0.557113 2.9441
lowerneck -11.0285 -0.622523 -11.4764
upperneck -5.45607 0.775504 4.06353
head 0.107811 0.744316 3.39882
rclavicle -1.51076e-014 -2.70347e-014
rhumerus -21.2538 63.1731 -100.669
rradius 88.2552
rwrist -5.23274
rhand -24.5281 26.1022
rfingers 7.12502
rthumb 1.9673 -3.86847
lclavicle -1.51076e-014 -2.70347e-014
lhumerus -39.8734 -7.15292 104.54
lradius 111.037
lwrist 22.8148
lhand -34.7876 35.2913
lfingers 7.12502
lthumb -7.9398 65.1222
rfemur -17.7598 -13.8411 -12.5241
rtibia 52.2345
rfoot -21.8723 -12.766
rtoes -56.3019
lfemur -27.2022 27.8712 6.08148
ltibia 98.252
lfoot -6.90561 -23.0435
ltoes -18.2696
